<?xml version="1.0" standalone="no"?>
<!DOCTYPE svg PUBLIC "-//W3C//DTD SVG 20010904//EN"
 "http://www.w3.org/TR/2001/REC-SVG-20010904/DTD/svg10.dtd">
<svg version="1.0" xmlns="http://www.w3.org/2000/svg"
 width="500.000000pt" height="500.000000pt" viewBox="0 0 500.000000 500.000000"
 preserveAspectRatio="xMidYMid meet">

<g transform="translate(0.000000,500.000000) scale(0.100000,-0.100000)"
fill="#000000" stroke="none">
<path d="M2268 4850 c-729 -84 -1348 -460 -1741 -1058 -135 -205 -244 -454
-303 -691 -58 -235 -69 -327 -68 -606 0 -227 3 -264 27 -397 121 -663 499
-1225 1062 -1582 116 -74 321 -173 460 -224 114 -42 367 -102 515 -123 109
-16 428 -16 548 0 222 28 540 120 732 212 587 280 1034 786 1232 1394 133 410
151 833 52 1273 -54 241 -182 542 -319 746 -380 571 -962 942 -1636 1041 -124
19 -453 27 -561 15z m1128 -789 c29 -18 64 -73 64 -102 0 -12 -171 -721 -571
-2368 -98 -406 -155 -621 -166 -634 -40 -44 -60 -47 -303 -47 -189 0 -236 3
-261 15 -35 19 -69 70 -69 105 0 14 45 212 101 440 55 228 127 525 159 660 32
135 134 553 225 930 91 377 179 743 196 813 32 131 56 178 103 197 12 5 127 9
256 9 213 1 238 -1 266 -18z m-1552 -1741 c13 -14 88 -116 165 -227 l140 -203
-15 -57 c-77 -302 -208 -790 -213 -795 -9 -10 -811 1185 -811 1207 0 9 7 30
16 46 29 56 48 59 386 56 l308 -2 24 -25z"/>
</g>
</svg>
